<svg xmlns="http://www.w3.org/2000/svg" viewBox="0 0 512 512">
  <defs>
    <linearGradient id="grad" x1="0%" y1="0%" x2="100%" y2="100%">
      <stop offset="0%" style="stop-color:#7C3AED"/>
      <stop offset="100%" style="stop-color:#8B5CF6"/>
    </linearGradient>
  </defs>
  <rect width="512" height="512" rx="108" fill="url(#grad)"/>
  <g transform="translate(128, 128)">
    <path d="M128 0C57.3 0 0 57.3 0 128s57.3 128 128 128 128-57.3 128-128S198.7 0 128 0zm0 208c-44.2 0-80-35.8-80-80s35.8-80 80-80 80 35.8 80 80-35.8 80-80 80z" fill="white"/>
    <circle cx="128" cy="128" r="48" fill="white"/>
    <path d="M128 64l-20 40h40l-20-40z" fill="white" transform="translate(0, -20)"/>
  </g>
</svg>
